<svg xmlns="http://www.w3.org/2000/svg" xmlns:xlink="http://www.w3.org/1999/xlink" xmlns:serif="http://www.serif.com/" width="100%" height="100%" viewBox="0 0 1104 1050" version="1.1" xml:space="preserve" style="fill-rule:evenodd;clip-rule:evenodd;stroke-linejoin:round;stroke-miterlimit:2;"><rect id="Prancheta1" x="0" y="0" width="1103.424" height="1049.037" style="fill:none;"/><g id="Layer_x0020_1"><g><path d="M526.425,12.5c224.783,0 415.83,144.326 485.606,345.356c-10.267,-2.513 -20.994,-3.856 -32.036,-3.856c-55.981,0 -103.952,34.271 -124.097,82.975l-167.275,-0.17c-23.063,-40.689 -66.755,-68.148 -116.864,-68.148c-50.688,0 -94.804,28.101 -117.647,69.568l-150.338,-0.154c-16.622,-30.822 -44.939,-54.402 -79.011,-64.795l0,-56.074c53.336,-17.765 91.798,-68.083 91.798,-127.389c0,-42.998 -20.218,-81.273 -51.664,-105.842c76.619,-45.386 166.02,-71.47 261.529,-71.47Zm-393.73,365.76c-47.863,20.52 -81.394,68.06 -81.394,123.435c0,74.14 60.104,134.245 134.244,134.245c57.878,0 107.19,-36.634 126.044,-87.973l120.013,0.122l-184.932,161.967c-17.065,-7.858 -36.057,-12.244 -56.076,-12.244c-50.888,0 -95.16,28.317 -117.927,70.051c-38.387,-71.979 -60.165,-154.162 -60.165,-241.437c0,-91.466 23.92,-177.34 65.811,-251.734c14.329,17.536 33.005,31.381 54.384,39.893l0,63.677Zm565.991,168.443l160.512,0.163c21.764,44.765 67.676,75.622 120.796,75.622c18.957,0 36.992,-3.937 53.344,-11.027c-7.508,45.054 -20.878,88.126 -39.295,128.407c-24.579,-27.412 -60.261,-44.665 -99.977,-44.665c-55.654,0 -103.396,33.869 -123.746,82.12l-433.476,-0.169l175.605,-153.798c17.887,8.823 38.016,13.789 59.309,13.789c58.802,0 108.768,-37.812 126.928,-90.443Zm-385.59,340.332l459.758,0.178c11.414,23.901 29.688,43.899 52.276,57.444c-84.178,60.234 -187.299,95.692 -298.706,95.692c-104.551,0 -201.79,-31.25 -282.944,-84.876c30.911,-13.265 55.843,-37.799 69.615,-68.438Z" style="fill:#00afef;"/><rect x="151.108" y="269.573" width="59.959" height="140.751" style="fill:#00afef;"/><circle cx="184.756" cy="192.434" r="108.243" style="fill:#00afef;"/><circle cx="184.982" cy="193.29" r="89.128" style="fill:#fefefe;"/><circle cx="184.982" cy="193.29" r="69.712" style="fill:#00afef;"/><path d="M275.839,462.276l204.024,-1.372l0.348,70.233l-204.024,1.372l-0.348,-70.233Z" style="fill:#00afef;"/><circle cx="571.708" cy="504.694" r="108.568" style="fill:#00afef;"/><circle cx="571.936" cy="505.552" r="89.395" style="fill:#fefefe;"/><circle cx="571.936" cy="505.552" r="69.92" style="fill:#00afef;"/><circle cx="187.301" cy="501.045" r="108.591" style="fill:#00afef;"/><circle cx="187.529" cy="501.904" r="89.414" style="fill:#fefefe;"/><circle cx="187.529" cy="501.904" r="69.935" style="fill:#00afef;"/><circle cx="193.276" cy="832.093" r="114.12" style="fill:#00afef;"/><circle cx="193.516" cy="832.996" r="93.967" style="fill:#fefefe;"/><circle cx="193.516" cy="832.996" r="73.496" style="fill:#00afef;"/><path d="M246.962,733.449l227.076,-196.374l51.401,52.208l-227.076,196.374l-51.401,-52.208Z" style="fill:#00afef;"/><path d="M671.719,459.79l213.608,-1.372l0.364,70.233l-213.608,1.372l-0.364,-70.233Z" style="fill:#00afef;"/><path d="M300.544,797.902l505.831,-1.372l0.862,70.233l-505.831,1.372l-0.862,-70.233Z" style="fill:#00afef;"/><circle cx="984.459" cy="488.183" r="108.568" style="fill:#00afef;"/><circle cx="984.687" cy="489.042" r="89.395" style="fill:#fefefe;"/><circle cx="984.688" cy="489.043" r="69.92" style="fill:#00afef;"/><circle cx="896.406" cy="829.391" r="108.568" style="fill:#00afef;"/><circle cx="896.633" cy="830.249" r="89.395" style="fill:#fefefe;"/><circle cx="896.634" cy="830.249" r="69.92" style="fill:#00afef;"/></g></g></svg>